<svg width="24" height="24" viewBox="0 0 24 24" fill="none" xmlns="http://www.w3.org/2000/svg">
<g id="Frame 9">
<path id="Vector" d="M22.6167 0.0297852H1.32108C0.970911 0.0297852 0 0.0298011 0 0.0298011C0 0.0298011 0.000767402 0.999929 0.000767402 1.3501V22.6478C0.000767402 22.9979 0.000767402 23.9681 0.000767402 23.9681C0.000767402 23.9681 0.970911 23.9681 1.32108 23.9681H12.7814V14.6995H9.66545V11.0859H12.7814V8.42088C12.7814 5.32932 14.6705 3.64541 17.4289 3.64541C18.3597 3.64209 19.2901 3.68956 20.2158 3.7876V7.01932H18.3084C16.8073 7.01932 16.5169 7.73229 16.5169 8.77838V11.0859H20.0939L19.6287 14.6995H16.5169V23.9701H22.6106C22.9606 23.9696 23.9309 23.9701 23.9309 23.9701C23.9309 23.9701 23.9304 22.9998 23.9309 22.6498V1.35213C23.9315 1.00266 23.9309 0.0298131 23.9309 0.0298131C23.9309 0.0298131 22.9662 0.0313977 22.6167 0.0297852Z" fill="black"/>
</g>
</svg>
