<svg width="20" height="21" viewBox="0 0 20 21" fill="none" xmlns="http://www.w3.org/2000/svg">
<path fill-rule="evenodd" clip-rule="evenodd" d="M10.0003 11.8215L13.6788 15.5L12.5003 16.6785L10.8336 15.0123V18.8341H9.16699V15.0123L7.50031 16.6785L6.3218 15.5L10.0003 11.8215ZM11.667 3C13.9682 3 15.8337 4.86547 15.8337 7.16668L15.8324 7.27148C17.2704 7.64059 18.3337 8.94609 18.3337 10.5C18.3337 12.2852 16.9304 13.7426 15.1667 13.8293L15.0003 13.8333H13.6788L10.0003 10.1548L6.3218 13.8333H5.83367L5.83398 13.8147C3.49777 13.6043 1.66699 11.641 1.66699 9.25C1.66699 6.71871 3.71902 4.66668 6.25031 4.66668C6.90082 4.66668 7.51969 4.80219 8.0802 5.04652C8.8048 3.82148 10.14 3 11.667 3Z" fill="#A2A2A2"/>
</svg>
