<svg width="25" height="24" viewBox="0 0 25 24" fill="none" xmlns="http://www.w3.org/2000/svg">
<g id="Frame 10">
<path id="Vector" fill-rule="evenodd" clip-rule="evenodd" d="M6.07443 3.98214e-05C4.71069 3.97208e-05 0.93127 0 0.93127 0C0.93127 0 0.931676 3.7776 0.931152 5.14134V18.8567C0.931152 20.2208 0.93127 24 0.93127 24C0.93127 24 4.71035 24 6.07443 24H19.7898C21.1536 23.9995 24.9312 24 24.9312 24C24.9312 24 24.9312 20.2205 24.9312 18.8567V5.14134C24.9306 3.77794 24.9312 3.98214e-05 24.9312 3.98214e-05C24.9312 3.98214e-05 21.1532 0.000563298 19.7898 3.98214e-05H6.07443ZM21.2692 5.14924C21.2692 5.54212 21.1132 5.91891 20.8354 6.19671C20.5575 6.47452 20.1808 6.63059 19.7879 6.63059C19.395 6.63059 19.0182 6.47452 18.7404 6.19671C18.4626 5.91891 18.3065 5.54212 18.3065 5.14924C18.3065 4.75636 18.4626 4.37957 18.7404 4.10176C19.0182 3.82395 19.395 3.66788 19.7879 3.66788C20.1808 3.66788 20.5575 3.82395 20.8354 4.10176C21.1132 4.37957 21.2692 4.75636 21.2692 5.14924ZM12.9341 7.89074C11.8445 7.89074 10.7996 8.32357 10.0291 9.09403C9.25865 9.86448 8.82581 10.9094 8.82581 11.999C8.82581 13.0886 9.25865 14.1336 10.0291 14.904C10.7996 15.6745 11.8445 16.1073 12.9341 16.1073C14.0237 16.1073 15.0687 15.6745 15.8391 14.904C16.6096 14.1336 17.0424 13.0886 17.0424 11.999C17.0424 10.9094 16.6096 9.86448 15.8391 9.09403C15.0687 8.32357 14.0237 7.89074 12.9341 7.89074ZM6.84869 11.999C6.84869 10.3856 7.48962 8.83826 8.63049 7.69739C9.77136 6.55653 11.3187 5.91559 12.9321 5.91559C14.5456 5.91559 16.0929 6.55653 17.2338 7.69739C18.3747 8.83826 19.0156 10.3856 19.0156 11.999C19.0156 13.6125 18.3747 15.1598 17.2338 16.3007C16.0929 17.4415 14.5456 18.0825 12.9321 18.0825C11.3187 18.0825 9.77136 17.4415 8.63049 16.3007C7.48962 15.1598 6.84869 13.6125 6.84869 11.999Z" fill="black"/>
</g>
</svg>
