<?xml version="1.0" encoding="UTF-8"?>
<svg id="Layer_1" data-name="Layer 1" xmlns="http://www.w3.org/2000/svg" viewBox="0 0 989.63 290">
  <defs>
    <style>
      .cls-1 {
        fill: #FF1E31;
      }
    </style>
  </defs>
  <path class="cls-1" d="m102.99,96.73l28.97-16.73h166.29c1.79,0,3.44.95,4.33,2.5l15.88,27.5H125.98l-22.99-13.27Zm221.24,23.27h-180.93s102.02,58.9,102.02,58.9l80.35-46.4c2.39-1.38,3.21-4.44,1.83-6.83l-3.27-5.67Zm-185.93,8.66l41,71.02,41-23.67h0s-82.02-47.35-82.02-47.35Zm-17.32-10l-27.99-16.16-12.99,7.5,56.29,97.5c.89,1.55,2.54,2.5,4.33,2.5h19.47c.88,0,1.74-.23,2.5-.67l8.05-4.65-49.67-86.02Z"/>
  <g>
    <path class="cls-1" d="m440.51,156c-1.75-2.86-4.11-5.16-7.09-6.91-1.93-1.14-3.95-2.06-6.07-2.78,3.18-1.29,5.72-3.02,7.61-5.22,2.63-3.05,3.94-6.74,3.94-11.09s-1.11-7.89-3.31-10.86c-2.21-2.97-5.49-5.24-9.83-6.8-4.34-1.56-9.71-2.34-16.11-2.34h-41.49v80h44c3.81,0,7.56-.4,11.26-1.2,3.69-.8,7.05-2.11,10.06-3.94,3.01-1.83,5.37-4.27,7.09-7.31,1.71-3.05,2.57-6.82,2.57-11.31,0-3.96-.88-7.37-2.63-10.23Zm-57.83-32.63h26.63c4.27,0,7.77.74,10.51,2.23,2.74,1.49,4.11,3.83,4.11,7.03,0,1.98-.59,3.7-1.77,5.14-1.18,1.45-2.8,2.57-4.86,3.37-2.06.8-4.34,1.2-6.86,1.2h-27.77v-18.97Zm43.54,48.4c-1.3,1.64-3.14,2.86-5.54,3.66-2.4.8-5.2,1.2-8.4,1.2h-29.6v-21.49h29.03c2.67,0,5.27.36,7.83,1.09,2.55.73,4.63,1.85,6.23,3.37,1.6,1.52,2.4,3.58,2.4,6.17,0,2.36-.65,4.36-1.94,6Z"/>
    <path class="cls-1" d="m618.71,190h15.77l-36.8-80h-15.31l-37.03,80h15.2l8.1-17.49h41.98l8.09,17.49Zm-44.08-30.4l9.11-19.66c.69-1.52,1.37-3.07,2.06-4.63.69-1.56,1.37-3.14,2.06-4.74.66-1.53,1.27-3.1,1.86-4.7.56,1.51,1.14,3,1.74,4.47.65,1.6,1.31,3.2,2,4.8.69,1.6,1.33,3.09,1.94,4.46l9.25,20h-30.02Z"/>
    <path class="cls-1" d="m722.46,110l-30.95,41-30.88-41h-14.06v80h14.74v-30.86c0-6.63-.15-12.7-.46-18.23-.14-2.59-.36-5.18-.63-7.78l27.38,35.15h7.54l27.5-35.18c-.28,2.67-.5,5.33-.65,7.98-.31,5.56-.46,11.58-.46,18.06v30.86h14.74v-80h-13.83Z"/>
    <polygon class="cls-1" points="768.08 176.51 768.08 155.71 811.51 155.71 811.51 142.46 768.08 142.46 768.08 123.49 817.34 123.49 817.34 110 753.45 110 753.45 190 817.8 190 817.8 176.51 768.08 176.51"/>
    <path class="cls-1" d="m533.83,190l-21.7-30.8c1.2-.45,2.36-.99,3.5-1.6,4.27-2.32,7.68-5.45,10.23-9.37,2.55-3.92,3.83-8.32,3.83-13.2s-1.2-9.09-3.6-12.86c-2.4-3.77-5.62-6.74-9.66-8.91-4.04-2.17-8.69-3.26-13.94-3.26h-43.31v80h14.51v-28.91h22.06l20.22,28.91h17.86Zm-60.15-66.63h25.94c2.67,0,5.12.53,7.37,1.6,2.25,1.07,4.02,2.5,5.31,4.29,1.29,1.79,1.94,3.83,1.94,6.11s-.61,4.51-1.83,6.46c-1.22,1.94-2.9,3.49-5.03,4.63-2.13,1.14-4.46,1.71-6.97,1.71h-26.74s0-24.8,0-24.8Z"/>
    <path class="cls-1" d="m909.63,190l-21.7-30.8c1.2-.45,2.36-.99,3.5-1.6,4.27-2.32,7.68-5.45,10.23-9.37,2.55-3.92,3.83-8.32,3.83-13.2s-1.2-9.09-3.6-12.86-5.62-6.74-9.66-8.91c-4.04-2.17-8.69-3.26-13.94-3.26h-43.31v80h14.51v-28.91h22.06l20.22,28.91h17.86Zm-60.15-66.63h25.94c2.67,0,5.12.53,7.37,1.6,2.25,1.07,4.02,2.5,5.31,4.29,1.29,1.79,1.94,3.83,1.94,6.11s-.61,4.51-1.83,6.46c-1.22,1.94-2.9,3.49-5.03,4.63-2.13,1.14-4.46,1.71-6.97,1.71h-26.74s0-24.8,0-24.8Z"/>
  </g>
</svg>