<svg viewBox="77.98398447606728 0.8034600000000001 468.70786545924966 399.31962000000004" xmlns="http://www.w3.org/2000/svg" data-name="Layer 1" id="Layer_1" style="max-height: 500px" width="468.70786545924966" height="399.31962000000004">
  <defs>
    <style>
      .cls-1 {
        fill: #FF1E31;
      }
    </style>
  </defs>
  <path d="m122.75,111.1l53.87-31.1h309.2c3.32,0,6.39,1.77,8.05,4.65l29.52,51.13H165.5l-42.75-24.68Zm411.37,43.28H197.7s189.69,109.52,189.69,109.52l149.41-86.28c4.45-2.57,5.97-8.25,3.4-12.7l-6.09-10.54Zm-345.71,16.1l76.25,132.06,76.24-44.02h.02s-152.5-88.04-152.5-88.04Zm-32.21-18.59l-52.05-30.05-24.15,13.95,104.67,181.29c1.66,2.88,4.73,4.65,8.05,4.65h36.21c1.63,0,3.24-.43,4.65-1.25l14.97-8.64-92.35-159.95Z" class="cls-1"/>
</svg>